<svg width="1992" height="306" viewBox="0 0 332 51" fill="none" xmlns="http://www.w3.org/2000/svg">
	<path d="M170.656 33.2051C169.855 33.2051 169.159 33.0521 168.566 32.7461C167.98 32.4336 167.515 32.0234 167.17 31.5156L166.965 31.5547V33H165.373V17.9023H166.965V23.8398L167.17 23.8789C167.99 22.6419 169.182 22.0234 170.744 22.0234C171.63 22.0234 172.404 22.2285 173.068 22.6387C173.732 23.0488 174.247 23.6738 174.611 24.5137C174.982 25.347 175.168 26.3822 175.168 27.6191C175.168 28.8431 174.973 29.875 174.582 30.7148C174.198 31.5482 173.667 32.1732 172.99 32.5898C172.313 33 171.535 33.2051 170.656 33.2051ZM170.275 31.7793C172.424 31.7793 173.498 30.3926 173.498 27.6191C173.498 26.1803 173.218 25.1257 172.658 24.4551C172.098 23.7845 171.304 23.4492 170.275 23.4492C169.266 23.4492 168.462 23.7943 167.863 24.4844C167.264 25.168 166.965 26.2129 166.965 27.6191C166.965 29.0189 167.264 30.0638 167.863 30.7539C168.462 31.4375 169.266 31.7793 170.275 31.7793Z" fill="white" />
	<path d="M178.293 37.5703C177.928 37.5703 177.587 37.5378 177.268 37.4727C176.955 37.4141 176.685 37.3294 176.457 37.2188L176.75 35.959L176.926 35.9004C177.082 35.9785 177.277 36.0436 177.512 36.0957C177.746 36.1543 177.987 36.1836 178.234 36.1836C178.671 36.1836 179.032 36.125 179.318 36.0078C179.605 35.8906 179.849 35.6953 180.051 35.4219C180.259 35.1549 180.451 34.7839 180.627 34.3086L181.008 33.2539L176.682 22.2285H178.4L181.789 31.0176H181.975L185.256 22.2285H186.887L182.072 34.6895C181.799 35.3796 181.493 35.9329 181.154 36.3496C180.816 36.7728 180.415 37.082 179.953 37.2773C179.491 37.4727 178.938 37.5703 178.293 37.5703Z" fill="white" />
	<path d="M330.717 30.4847C330.487 30.4847 330.276 30.6377 330.168 30.9576C328.777 35.0254 326.898 37.4453 325.352 37.4453C324.463 37.4453 324.104 36.4301 324.104 34.8377C324.104 30.8533 326.43 22.4046 327.604 18.5523C327.74 18.0864 327.828 17.6692 327.828 17.3145C327.828 16.195 327.231 15.6457 325.752 15.6457C324.158 15.6457 322.442 16.2854 320.773 19.2824C320.197 16.64 318.454 15.4857 316.018 15.4857C313.204 15.4857 310.484 17.3424 308.245 20.3533C306.007 23.3642 303.375 24.3516 301.394 23.8649C302.819 20.2907 303.348 17.6205 303.348 15.6387C303.348 12.5304 301.849 10.653 299.427 10.653C295.744 10.653 293.621 14.2549 293.621 18.0447C293.621 20.9721 294.917 23.9831 297.765 25.4433C295.378 30.9784 291.891 35.985 290.569 35.985C288.859 35.985 288.357 27.4112 288.452 21.2781C288.513 17.7596 288.798 17.5788 288.798 16.5149C288.798 15.903 288.412 15.4857 286.858 15.4857C283.236 15.4857 282.117 18.6288 281.947 22.2377C281.893 23.6076 281.683 24.9705 281.323 26.2917C279.811 31.8268 276.691 36.0268 274.656 36.0268C273.713 36.0268 273.455 35.0602 273.455 33.7946C273.455 29.8102 275.632 24.8314 275.632 20.5827C275.632 17.4606 274.296 15.4857 271.78 15.4857C268.816 15.4857 264.895 19.1016 261.185 25.8745C262.406 20.6871 262.908 15.6665 259.292 15.6665C258.505 15.6804 257.739 15.8821 257.047 16.2645C256.572 16.494 256.281 16.9947 256.314 17.5301C256.66 23.0513 251.973 37.195 247.53 37.195C246.723 37.195 246.33 36.298 246.33 34.8516C246.33 30.8602 248.65 22.4324 249.816 18.5731C249.966 18.0725 250.047 17.6414 250.047 17.2659C250.047 16.2089 249.409 15.6665 247.965 15.6665C246.377 15.6665 244.654 16.2854 242.993 19.2824C242.409 16.64 240.666 15.4857 238.231 15.4857C234.236 15.4857 229.773 19.8178 227.812 25.4642C225.187 33.0019 219.897 40.2824 212.774 40.2824C206.31 40.2824 202.898 34.7682 202.898 26.0553C202.898 13.4761 211.906 3.19867 218.587 3.19867C221.782 3.19867 223.308 5.28476 223.308 8.48343C223.308 12.3566 221.199 14.1576 221.199 15.6318C221.199 16.0837 221.565 16.5288 222.291 16.5288C225.194 16.5288 228.613 13.0311 228.613 8.26091C228.613 3.49072 224.835 0 218.153 0C207.111 0 196 11.39 196 25.9857C196 37.5983 201.589 44.6006 211.255 44.6006C217.848 44.6006 223.607 39.3436 226.713 33.2105C227.066 38.2936 229.318 40.9499 232.75 40.9499C235.803 40.9499 238.272 39.0864 240.157 35.8112C240.883 39.2393 242.81 40.9152 245.312 40.9152C248.182 40.9152 250.583 39.0516 252.869 35.5887C252.835 38.3075 253.438 40.8665 255.738 40.8665C256.823 40.8665 258.119 40.6092 258.349 39.6357C260.771 29.3721 266.754 20.993 268.585 20.993C269.128 20.993 269.277 21.5284 269.277 22.1612C269.277 24.9496 267.357 30.6655 267.357 34.3162C267.357 38.2589 268.992 40.8665 272.37 40.8665C276.114 40.8665 279.919 36.1658 282.456 29.2956C283.25 35.7138 284.966 40.8943 287.652 40.8943C290.949 40.8943 296.802 33.7807 300.35 26.25C301.74 26.4307 303.829 26.3821 305.837 24.9288C304.983 27.147 304.481 29.5738 304.481 32.0006C304.481 38.989 307.736 40.9499 310.538 40.9499C313.583 40.9499 316.052 39.0864 317.945 35.8112C318.569 38.7665 320.163 40.9082 323.093 40.9082C327.678 40.9082 331.66 36.1032 331.66 32.1605C331.66 31.1175 331.226 30.4847 330.717 30.4847ZM235.545 37.0768C233.693 37.0768 232.967 35.1645 232.967 32.3135C232.967 27.3625 236.271 19.0947 239.764 19.0947C241.29 19.0947 241.867 20.9374 241.867 23.1904C241.867 28.2178 238.726 37.0768 235.545 37.0768ZM298.973 22.3003C297.867 20.9513 297.467 19.1155 297.467 17.4814C297.467 15.4649 298.186 13.7612 299.047 13.7612C299.909 13.7612 300.173 14.6304 300.173 15.8404C300.173 17.8639 299.468 20.8192 298.973 22.3003ZM313.332 37.0768C311.481 37.0768 310.755 34.8794 310.755 32.3135C310.755 27.5364 314.058 19.0947 317.579 19.0947C319.105 19.0947 319.647 20.9235 319.647 23.1904C319.647 28.2178 316.561 37.0768 313.332 37.0768Z" fill="white" />
	<path d="M147.374 13.9469V25.5622C147.374 32.5728 145.255 35.7165 142.074 35.7165C139.422 35.7165 138.079 34.1261 138.079 29.5868V13.9469H130.467V30.7097C130.467 36.7933 132.387 40.6383 138.472 40.6383C142.944 40.6383 146.407 37.7493 148.158 31.2605L148.707 31.4594V39.362C148.707 44.2687 146.737 47.3486 142.187 47.3486C138.3 47.3486 133.683 44.9945 131.36 43.2733V50.5718C133.296 50.7827 135.694 51 137.629 51C149.091 51 155 46.1861 155 32.3868V13.9469H147.374Z" fill="white" />
	<path d="M25.0873 18.9703C25.0873 15.0894 20.521 13.4167 14.6918 13.4167C11.146 13.4167 7.13665 14.0629 3.4132 15.219V22.8081C8.90044 18.8737 14.997 17.1894 18.924 17.1894C21.3933 17.1894 23.0688 17.8678 23.0688 19.0829C23.0688 24.0898 1 23.2964 1 34.1153C1 38.2621 3.89655 40.638 7.97165 40.638C14.1355 40.638 18.7979 34.741 22.2858 27.5527L22.9924 27.8027C21.1554 32.1954 17.3539 37.0119 16.6135 40.1081H24.5491V24.0896H22.7162C20.0558 29.7806 16.1574 35.0248 12.1095 35.0248C10.2616 35.0248 9.08604 33.9211 9.08604 32.5214C9.08604 26.5312 25.0873 25.3319 25.0873 18.9703Z" fill="white" />
	<path d="M110.19 13.9469H102.578V40.1084H110.19V13.9469Z" fill="white" />
	<path d="M90.2606 13.4165C85.7817 13.4165 82.3153 16.3138 80.5667 22.8227L79.8537 22.5644C80.4567 20.19 81.5036 17.3745 81.6712 13.9464H73.7358L73.7268 40.1079H81.3581V28.4927C81.3581 21.4821 83.4775 18.3382 86.6583 18.3382C89.3104 18.3382 90.6533 19.9286 90.6533 24.4681V40.1079H98.2653V23.3452C98.2653 17.2615 96.3459 13.4165 90.2606 13.4165Z" fill="white" />
	<path d="M55.4467 13.9467C52.3786 13.9467 50.2177 12.1145 50.2177 10.1612C50.2177 8.24906 52.2972 6.93117 55.8128 6.93117C58.3391 6.93117 61.5237 7.62452 64.9447 9.32533V2.41266C62.2551 2.11663 59.9055 2 57.8609 2C49.2044 2 45.5815 5.04707 45.606 8.63373C45.621 10.8325 46.5369 12.468 49.5648 13.526V13.9467H39.4014C35.9617 13.9467 34.1373 11.8355 34.1373 10.23C34.1373 8.2164 35.9475 6.93117 38.5561 6.93117C40.3762 6.93117 41.8786 7.48496 43.7468 8.47259V2.41266C33.9692 0.808852 29.4957 4.27694 29.5255 8.63373C29.5405 10.8325 30.4565 12.468 33.4843 13.526V13.9467H26.5456V16.1037H30.7649L30.7745 40.108H38.3879L38.3766 16.1037H46.8453L46.855 40.108H54.4684L54.4573 16.1037H61.5741L61.5822 40.108H69.1955L69.1855 13.9465L55.4467 13.9467Z" fill="white" />
	<path d="M106.915 4.72289C104.398 4.72289 102.146 6.18072 102.146 8.47671C102.146 10.299 103.626 11.5442 105.854 11.5442C108.365 11.5442 110.586 10.0803 110.586 7.77209C110.586 5.94999 109.13 4.72289 106.915 4.72289Z" fill="white" />
	<path d="M123.822 6.53658L116.217 8.68542V13.9467H112.656V16.1037H116.217V40.1082H123.822V16.1037H128.545V13.9467H123.822V6.53658Z" fill="white" />
</svg>
